<svg xmlns="http://www.w3.org/2000/svg" xmlns:xlink="http://www.w3.org/1999/xlink" version="1.1" width="1000" height="1000" viewBox="0 0 1000 1000" xml:space="preserve">
<desc>Created with Fabric.js 3.5.0</desc>
<defs>
</defs>
<rect x="0" y="0" width="100%" height="100%" fill="rgba(255,255,255,0)"/>
<g transform="matrix(7.5518 0 0 7.5437 495.22 500.0001)" id="626765">
<g style="" vector-effect="non-scaling-stroke">
		<g transform="matrix(1 0 0 1 -17.775 6.675)">
<path style="stroke: rgb(0,0,0); stroke-width: 3; stroke-dasharray: none; stroke-linecap: butt; stroke-dashoffset: 0; stroke-linejoin: miter; stroke-miterlimit: 4; is-custom-font: none; font-file-url: none; fill: rgb(0,0,0); fill-rule: nonzero; opacity: 1;" transform=" translate(-45.225, -69.675)" d="M 45.23 57.2 c -6.16 0 -11.17 5.6 -11.17 12.48 s 5 12.47 11.17 12.47 s 11.16 -5.59 11.16 -12.47 S 51.38 57.2 45.23 57.2 Z m 0 21 c -4 0 -7.17 -3.8 -7.17 -8.47 s 3.21 -8.48 7.17 -8.48 s 7.16 3.8 7.16 8.48 S 49.18 78.15 45.23 78.15 Z" stroke-linecap="round"/>
</g>
		<g transform="matrix(1 0 0 1 0.995 1.0042)">
<path style="stroke: rgb(0,0,0); stroke-width: 3; stroke-dasharray: none; stroke-linecap: butt; stroke-dashoffset: 0; stroke-linejoin: miter; stroke-miterlimit: 4; is-custom-font: none; font-file-url: none; fill: rgb(0,0,0); fill-rule: nonzero; opacity: 1;" transform=" translate(-63.995, -64.0042)" d="M 121.83 59.58 a 156.78 156.78 0 0 0 -11.52 -31 a 2.1 2.1 0 0 0 -0.71 -0.77 a 87.08 87.08 0 0 0 -15.23 -7.17 C 84.55 17.07 79.91 17 79.72 17 a 2 2 0 0 0 -2 1.72 l -0.6 4.17 a 133.14 133.14 0 0 0 -26.28 0 l -0.6 -4.17 a 2 2 0 0 0 -2 -1.72 c -0.19 0 -4.83 0 -14.65 3.61 A 87.08 87.08 0 0 0 18.4 27.81 a 2.1 2.1 0 0 0 -0.71 0.77 a 156.72 156.72 0 0 0 -11.52 31 C 1 80.46 0 90.91 0 91.34 a 2 2 0 0 0 0.49 1.5 a 55.2 55.2 0 0 0 18.2 12.74 A 76.32 76.32 0 0 0 38.48 111 a 2 2 0 0 0 1.92 -1 l 5.4 -9.25 A 105.08 105.08 0 0 0 64 102.24 a 105.08 105.08 0 0 0 18.2 -1.51 L 87.6 110 a 2 2 0 0 0 1.72 1 h 0.2 a 76.32 76.32 0 0 0 19.78 -5.38 a 55.2 55.2 0 0 0 18.2 -12.74 a 2 2 0 0 0 0.49 -1.5 C 128 90.91 127.05 80.46 121.83 59.58 Z m -14.06 42.31 a 76.76 76.76 0 0 1 -17.39 4.92 l -4.08 -7 c 4.68 -1.24 14.42 -4.46 21.83 -11.2 a 2 2 0 1 0 -2.69 -3 c -9 8.23 -22.46 10.84 -22.6 10.87 h -0.06 A 96.59 96.59 0 0 1 64 98.24 a 96.59 96.59 0 0 1 -18.78 -1.7 h -0.06 c -0.14 0 -13.55 -2.64 -22.6 -10.87 a 2 2 0 1 0 -2.69 3 c 7.41 6.74 17.15 10 21.83 11.2 l -4.08 7 a 76.08 76.08 0 0 1 -17.39 -4.92 A 52.24 52.24 0 0 1 4.08 90.8 c 0.33 -2.91 1.68 -13.07 6 -30.24 A 156.25 156.25 0 0 1 21 30.92 A 88.17 88.17 0 0 1 35 24.4 a 61.35 61.35 0 0 1 11.58 -3.19 l 0.35 2.39 c -4 1 -13.85 3.86 -21.65 9.53 a 2 2 0 1 0 2.36 3.23 c 8.82 -6.41 21 -9.06 21.86 -9.25 A 118.4 118.4 0 0 1 64 26.27 a 117.64 117.64 0 0 1 14.51 0.84 c 0.91 0.19 13 2.83 21.86 9.25 a 2 2 0 1 0 2.36 -3.23 c -7.8 -5.67 -17.61 -8.52 -21.65 -9.53 l 0.35 -2.39 A 61.75 61.75 0 0 1 93 24.4 a 88.17 88.17 0 0 1 14 6.52 A 156.25 156.25 0 0 1 118 60.56 c 4.29 17.17 5.64 27.33 6 30.24 A 52.24 52.24 0 0 1 107.77 101.89 Z" stroke-linecap="round"/>
</g>
		<g transform="matrix(1 0 0 1 19.775 6.675)">
<path style="stroke: rgb(0,0,0); stroke-width: 3; stroke-dasharray: none; stroke-linecap: butt; stroke-dashoffset: 0; stroke-linejoin: miter; stroke-miterlimit: 4; is-custom-font: none; font-file-url: none; fill: rgb(0,0,0); fill-rule: nonzero; opacity: 1;" transform=" translate(-82.775, -69.675)" d="M 82.77 57.2 c -6.15 0 -11.16 5.6 -11.16 12.48 s 5 12.47 11.16 12.47 s 11.17 -5.59 11.17 -12.47 S 88.93 57.2 82.77 57.2 Z m 0 21 c -4 0 -7.16 -3.8 -7.16 -8.47 s 3.21 -8.48 7.16 -8.48 s 7.17 3.8 7.17 8.48 S 86.73 78.15 82.77 78.15 Z" stroke-linecap="round"/>
</g>
</g>
</g>
</svg>